STARTFONT 2.1
COMMENT $XConsortium: luBIS12.bdf,v 1.8 94/04/02 15:58:32 gildea Exp $
COMMENT  (c) Copyright Bigelow & Holmes 1986, 1985. Lucida is a registered
COMMENT  trademark of Bigelow & Holmes. See LEGAL NOTICE file for terms 
COMMENT  of the license. 
COMMENT GRID 0012 0012 0200 0200
FONT -RFX-Serene-Bold-I-Normal-Sans-12-120-75-75-P-79-windows-1251
SIZE 12 72 72
FONTBOUNDINGBOX 17 13 -1 -2
STARTPROPERTIES 24
FONTNAME_REGISTRY ""
FOUNDRY "RFX"
FAMILY_NAME "Serene"
WEIGHT_NAME "Bold"
SLANT "I"
SETWIDTH_NAME "Normal"
ADD_STYLE_NAME "Sans"
PIXEL_SIZE 12
POINT_SIZE 120
RESOLUTION_X 75
RESOLUTION_Y 75
SPACING "P"
AVERAGE_WIDTH 79
CHARSET_REGISTRY "windows"
CHARSET_ENCODING "1251"
FONT_ASCENT 11
FONT_DESCENT 2
DEFAULT_CHAR 32
COPYRIGHT "Copyright Bigelow & Holmes 1986, 1985."
FACE_NAME "Lucida Sans Bold Italic"
COPYRIGHT2 "Cyrillic and Euro glyphs copyright 2000 Dmitry Yu. Bolkhovityanov, bolkhov@inp.nsk.su"
SOURCEDATE "Fri Jul 21 14:11:42 2000"
PKGVERSION "1.1"
ASSEMBLER "cvtbdf.pl (Linux)"
ENDPROPERTIES
CHARS 244
STARTCHAR space
ENCODING 32
SWIDTH 343 0
DWIDTH 4 0
BBX 0 0 0 0
BITMAP
ENDCHAR
STARTCHAR exclam
ENCODING 33
SWIDTH 343 0
DWIDTH 4 0
BBX 4 9 1 0
BITMAP
30
30
30
60
60
60
00
C0
C0
ENDCHAR
STARTCHAR quotedbl
ENCODING 34
SWIDTH 530 0
DWIDTH 7 0
BBX 5 4 2 6
BITMAP
D8
D8
90
90
ENDCHAR
STARTCHAR numbersign
ENCODING 35
SWIDTH 687 0
DWIDTH 8 0
BBX 9 9 0 0
BITMAP
1B00
1B00
7F80
3600
3600
3600
FF00
6C00
6C00
ENDCHAR
STARTCHAR dollar
ENCODING 36
SWIDTH 687 0
DWIDTH 8 0
BBX 7 11 1 -1
BITMAP
08
3E
68
68
78
38
3C
2C
2C
F8
20
ENDCHAR
STARTCHAR percent
ENCODING 37
SWIDTH 908 0
DWIDTH 11 0
BBX 9 9 1 0
BITMAP
7180
DB00
DA00
7400
0800
1700
2D80
6D80
C700
ENDCHAR
STARTCHAR ampersand
ENCODING 38
SWIDTH 816 0
DWIDTH 10 0
BBX 9 9 1 0
BITMAP
3C00
6600
6600
3400
7980
D980
CD00
CE00
7B00
ENDCHAR
STARTCHAR quotesingle
ENCODING 39
SWIDTH 265 0
DWIDTH 3 0
BBX 2 4 2 6
BITMAP
C0
C0
80
80
ENDCHAR
STARTCHAR parenleft
ENCODING 40
SWIDTH 386 0
DWIDTH 5 0
BBX 5 11 1 -1
BITMAP
18
30
60
60
C0
C0
C0
C0
C0
C0
60
ENDCHAR
STARTCHAR parenright
ENCODING 41
SWIDTH 386 0
DWIDTH 5 0
BBX 5 11 0 -1
BITMAP
30
18
18
18
18
18
18
30
30
60
C0
ENDCHAR
STARTCHAR asterisk
ENCODING 42
SWIDTH 464 0
DWIDTH 6 0
BBX 6 5 0 4
BITMAP
10
94
78
A4
20
ENDCHAR
STARTCHAR plus
ENCODING 43
SWIDTH 687 0
DWIDTH 9 0
BBX 8 7 1 1
BITMAP
08
08
08
FF
10
10
10
ENDCHAR
STARTCHAR comma
ENCODING 44
SWIDTH 343 0
DWIDTH 3 0
BBX 3 4 0 -2
BITMAP
60
60
40
80
ENDCHAR
STARTCHAR minus
ENCODING 45
SWIDTH 687 0
DWIDTH 9 0
BBX 7 1 2 4
BITMAP
FE
ENDCHAR
STARTCHAR period
ENCODING 46
SWIDTH 343 0
DWIDTH 3 0
BBX 2 2 1 0
BITMAP
C0
C0
ENDCHAR
STARTCHAR slash
ENCODING 47
SWIDTH 596 0
DWIDTH 7 0
BBX 7 11 0 -1
BITMAP
06
06
0C
0C
18
38
30
60
60
C0
C0
ENDCHAR
STARTCHAR zero
ENCODING 48
SWIDTH 687 0
DWIDTH 8 0
BBX 7 9 1 0
BITMAP
3C
66
66
66
C6
CC
CC
CC
78
ENDCHAR
STARTCHAR one
ENCODING 49
SWIDTH 687 0
DWIDTH 8 0
BBX 4 9 2 0
BITMAP
30
F0
30
30
70
60
60
60
60
ENDCHAR
STARTCHAR two
ENCODING 50
SWIDTH 687 0
DWIDTH 8 0
BBX 7 9 1 0
BITMAP
3C
66
06
0E
1C
30
40
FC
FC
ENDCHAR
STARTCHAR three
ENCODING 51
SWIDTH 687 0
DWIDTH 8 0
BBX 7 9 1 0
BITMAP
3C
66
06
0C
38
0C
0C
CC
78
ENDCHAR
STARTCHAR four
ENCODING 52
SWIDTH 687 0
DWIDTH 8 0
BBX 7 9 1 0
BITMAP
0C
1C
2C
4C
8C
FE
18
18
18
ENDCHAR
STARTCHAR five
ENCODING 53
SWIDTH 687 0
DWIDTH 8 0
BBX 7 9 1 0
BITMAP
3E
3E
40
78
1C
0C
0C
D8
70
ENDCHAR
STARTCHAR six
ENCODING 54
SWIDTH 687 0
DWIDTH 8 0
BBX 7 9 1 0
BITMAP
1C
36
60
60
78
CC
CC
CC
78
ENDCHAR
STARTCHAR seven
ENCODING 55
SWIDTH 687 0
DWIDTH 8 0
BBX 7 9 1 0
BITMAP
7E
7E
06
0C
18
30
60
E0
C0
ENDCHAR
STARTCHAR eight
ENCODING 56
SWIDTH 687 0
DWIDTH 8 0
BBX 7 9 1 0
BITMAP
3C
66
66
34
38
4C
CC
CC
78
ENDCHAR
STARTCHAR nine
ENCODING 57
SWIDTH 687 0
DWIDTH 8 0
BBX 7 9 1 0
BITMAP
3C
66
66
66
3C
0C
0C
D8
70
ENDCHAR
STARTCHAR colon
ENCODING 58
SWIDTH 343 0
DWIDTH 4 0
BBX 3 7 1 0
BITMAP
60
60
00
00
00
C0
C0
ENDCHAR
STARTCHAR semicolon
ENCODING 59
SWIDTH 343 0
DWIDTH 4 0
BBX 4 9 0 -2
BITMAP
30
30
00
00
00
60
60
40
80
ENDCHAR
STARTCHAR less
ENCODING 60
SWIDTH 687 0
DWIDTH 9 0
BBX 7 8 1 0
BITMAP
06
0C
38
60
C0
60
38
0C
ENDCHAR
STARTCHAR equal
ENCODING 61
SWIDTH 687 0
DWIDTH 9 0
BBX 8 3 1 3
BITMAP
7F
00
FE
ENDCHAR
STARTCHAR greater
ENCODING 62
SWIDTH 687 0
DWIDTH 9 0
BBX 7 8 1 0
BITMAP
60
38
0C
06
0C
38
60
C0
ENDCHAR
STARTCHAR question
ENCODING 63
SWIDTH 539 0
DWIDTH 7 0
BBX 6 9 1 0
BITMAP
78
0C
0C
38
60
60
00
C0
C0
ENDCHAR
STARTCHAR at
ENCODING 64
SWIDTH 833 0
DWIDTH 10 0
BBX 9 9 1 0
BITMAP
0F00
3180
6780
4980
DB00
DB00
CD00
6000
3E00
ENDCHAR
STARTCHAR A
ENCODING 65
SWIDTH 771 0
DWIDTH 9 0
BBX 8 9 0 0
BITMAP
03
07
0F
1B
33
3F
63
C3
C3
ENDCHAR
STARTCHAR B
ENCODING 66
SWIDTH 660 0
DWIDTH 8 0
BBX 7 9 1 0
BITMAP
7C
66
66
6C
FC
C6
C6
CC
F8
ENDCHAR
STARTCHAR C
ENCODING 67
SWIDTH 737 0
DWIDTH 9 0
BBX 8 9 1 0
BITMAP
0E
3B
60
60
C0
C0
C0
E2
7C
ENDCHAR
STARTCHAR D
ENCODING 68
SWIDTH 822 0
DWIDTH 10 0
BBX 9 9 1 0
BITMAP
7F00
6380
6180
6180
E180
C300
C300
CE00
F800
ENDCHAR
STARTCHAR E
ENCODING 69
SWIDTH 642 0
DWIDTH 8 0
BBX 7 9 1 0
BITMAP
7E
60
60
60
F8
C0
C0
C0
FC
ENDCHAR
STARTCHAR F
ENCODING 70
SWIDTH 614 0
DWIDTH 7 0
BBX 7 9 1 0
BITMAP
7E
60
60
60
FC
C0
C0
C0
C0
ENDCHAR
STARTCHAR G
ENCODING 71
SWIDTH 755 0
DWIDTH 9 0
BBX 8 9 1 0
BITMAP
0E
3B
60
60
C0
C6
C6
E6
7E
ENDCHAR
STARTCHAR H
ENCODING 72
SWIDTH 813 0
DWIDTH 10 0
BBX 8 9 1 0
BITMAP
63
63
63
63
FF
C6
C6
C6
C6
ENDCHAR
STARTCHAR I
ENCODING 73
SWIDTH 361 0
DWIDTH 5 0
BBX 3 9 1 0
BITMAP
60
60
60
60
E0
C0
C0
C0
C0
ENDCHAR
STARTCHAR J
ENCODING 74
SWIDTH 502 0
DWIDTH 6 0
BBX 6 11 -1 -2
BITMAP
0C
0C
0C
0C
1C
18
18
18
18
38
F0
ENDCHAR
STARTCHAR K
ENCODING 75
SWIDTH 753 0
DWIDTH 9 0
BBX 8 9 1 0
BITMAP
63
66
6C
78
F0
D8
CC
CC
C6
ENDCHAR
STARTCHAR L
ENCODING 76
SWIDTH 623 0
DWIDTH 8 0
BBX 6 9 2 0
BITMAP
60
60
60
60
E0
C0
C0
C0
FC
ENDCHAR
STARTCHAR M
ENCODING 77
SWIDTH 940 0
DWIDTH 12 0
BBX 10 9 1 0
BITMAP
79C0
79C0
6AC0
6EC0
6CC0
CD80
C980
C180
C180
ENDCHAR
STARTCHAR N
ENCODING 78
SWIDTH 789 0
DWIDTH 10 0
BBX 8 9 1 0
BITMAP
61
71
71
7B
5A
CE
8E
86
86
ENDCHAR
STARTCHAR O
ENCODING 79
SWIDTH 855 0
DWIDTH 11 0
BBX 9 9 1 0
BITMAP
0F00
3380
6180
6180
C180
C300
C300
E600
7800
ENDCHAR
STARTCHAR P
ENCODING 80
SWIDTH 645 0
DWIDTH 8 0
BBX 7 9 1 0
BITMAP
7C
66
66
66
CC
F8
C0
C0
C0
ENDCHAR
STARTCHAR Q
ENCODING 81
SWIDTH 855 0
DWIDTH 11 0
BBX 9 11 1 -2
BITMAP
0F00
3380
6180
6180
C180
C300
C300
E600
7800
0E00
0380
ENDCHAR
STARTCHAR R
ENCODING 82
SWIDTH 708 0
DWIDTH 9 0
BBX 7 9 1 0
BITMAP
7C
66
66
6C
F8
D8
CC
CE
C6
ENDCHAR
STARTCHAR S
ENCODING 83
SWIDTH 639 0
DWIDTH 8 0
BBX 7 9 1 0
BITMAP
3C
66
60
70
38
1C
0C
CC
78
ENDCHAR
STARTCHAR T
ENCODING 84
SWIDTH 747 0
DWIDTH 9 0
BBX 8 9 1 0
BITMAP
FF
18
18
18
38
30
30
30
30
ENDCHAR
STARTCHAR U
ENCODING 85
SWIDTH 759 0
DWIDTH 9 0
BBX 8 9 1 0
BITMAP
63
63
63
63
E6
C6
C6
EC
78
ENDCHAR
STARTCHAR V
ENCODING 86
SWIDTH 765 0
DWIDTH 9 0
BBX 7 9 2 0
BITMAP
C6
C6
C6
CC
CC
D8
D0
E0
C0
ENDCHAR
STARTCHAR W
ENCODING 87
SWIDTH 991 0
DWIDTH 12 0
BBX 10 9 2 0
BITMAP
C0C0
CCC0
CCC0
CC80
DD80
DD00
ED00
EE00
CC00
ENDCHAR
STARTCHAR X
ENCODING 88
SWIDTH 696 0
DWIDTH 9 0
BBX 9 9 0 0
BITMAP
7180
3180
3B00
1A00
1C00
2C00
6E00
C600
C700
ENDCHAR
STARTCHAR Y
ENCODING 89
SWIDTH 681 0
DWIDTH 9 0
BBX 7 9 2 0
BITMAP
C6
C6
CC
CC
D8
70
60
60
60
ENDCHAR
STARTCHAR Z
ENCODING 90
SWIDTH 687 0
DWIDTH 9 0
BBX 9 9 0 0
BITMAP
3F80
0380
0700
0E00
1C00
3800
7000
E000
FE00
ENDCHAR
STARTCHAR bracketleft
ENCODING 91
SWIDTH 386 0
DWIDTH 5 0
BBX 6 11 0 -1
BITMAP
3C
30
30
60
60
60
60
C0
C0
C0
F0
ENDCHAR
STARTCHAR backslash
ENCODING 92
SWIDTH 566 0
DWIDTH 7 0
BBX 5 11 1 -1
BITMAP
C0
C0
60
60
60
30
30
30
18
18
18
ENDCHAR
STARTCHAR bracketright
ENCODING 93
SWIDTH 386 0
DWIDTH 5 0
BBX 6 11 0 -1
BITMAP
3C
0C
0C
18
18
18
18
30
30
30
F0
ENDCHAR
STARTCHAR asciicircum
ENCODING 94
SWIDTH 687 0
DWIDTH 9 0
BBX 7 7 1 1
BITMAP
06
0E
16
26
66
C6
86
ENDCHAR
STARTCHAR underscore
ENCODING 95
SWIDTH 500 0
DWIDTH 9 0
BBX 7 1 1 -1
BITMAP
FE
ENDCHAR
STARTCHAR grave
ENCODING 96
SWIDTH 663 0
DWIDTH 8 0
BBX 3 2 3 8
BITMAP
C0
60
ENDCHAR
STARTCHAR a
ENCODING 97
SWIDTH 681 0
DWIDTH 8 0
BBX 7 7 1 0
BITMAP
3E
66
66
C6
CC
DC
EC
ENDCHAR
STARTCHAR b
ENCODING 98
SWIDTH 681 0
DWIDTH 8 0
BBX 7 10 1 0
BITMAP
30
30
30
6E
76
66
C6
CC
CC
F8
ENDCHAR
STARTCHAR c
ENCODING 99
SWIDTH 548 0
DWIDTH 7 0
BBX 6 7 1 0
BITMAP
38
6C
C0
C0
C0
C0
78
ENDCHAR
STARTCHAR d
ENCODING 100
SWIDTH 681 0
DWIDTH 8 0
BBX 8 10 1 0
BITMAP
03
03
03
3E
66
66
C6
CC
DC
6C
ENDCHAR
STARTCHAR e
ENCODING 101
SWIDTH 612 0
DWIDTH 8 0
BBX 7 7 1 0
BITMAP
3C
66
CE
F8
C0
CC
78
ENDCHAR
STARTCHAR f
ENCODING 102
SWIDTH 464 0
DWIDTH 6 0
BBX 7 12 1 -2
BITMAP
0E
18
18
7E
30
30
60
60
60
C0
C0
C0
ENDCHAR
STARTCHAR g
ENCODING 103
SWIDTH 674 0
DWIDTH 8 0
BBX 8 9 0 -2
BITMAP
1F
33
33
66
6E
76
06
CC
78
ENDCHAR
STARTCHAR h
ENCODING 104
SWIDTH 675 0
DWIDTH 8 0
BBX 7 10 1 0
BITMAP
30
30
30
6E
76
66
66
CC
CC
CC
ENDCHAR
STARTCHAR i
ENCODING 105
SWIDTH 343 0
DWIDTH 4 0
BBX 4 10 1 0
BITMAP
30
30
00
60
60
60
60
C0
C0
C0
ENDCHAR
STARTCHAR j
ENCODING 106
SWIDTH 407 0
DWIDTH 5 0
BBX 6 12 -1 -2
BITMAP
0C
0C
00
18
18
18
18
18
30
30
30
E0
ENDCHAR
STARTCHAR k
ENCODING 107
SWIDTH 666 0
DWIDTH 8 0
BBX 7 10 1 0
BITMAP
30
30
30
66
6C
78
70
D8
CC
C6
ENDCHAR
STARTCHAR l
ENCODING 108
SWIDTH 343 0
DWIDTH 4 0
BBX 4 10 1 0
BITMAP
30
30
30
60
60
60
60
C0
C0
C0
ENDCHAR
STARTCHAR m
ENCODING 109
SWIDTH 991 0
DWIDTH 12 0
BBX 11 7 1 0
BITMAP
6EE0
7760
6660
6660
CCC0
CCC0
CCC0
ENDCHAR
STARTCHAR n
ENCODING 110
SWIDTH 675 0
DWIDTH 8 0
BBX 7 7 1 0
BITMAP
6E
76
66
66
CC
CC
CC
ENDCHAR
STARTCHAR o
ENCODING 111
SWIDTH 663 0
DWIDTH 8 0
BBX 7 7 1 0
BITMAP
3C
66
C6
C6
C6
CC
78
ENDCHAR
STARTCHAR p
ENCODING 112
SWIDTH 681 0
DWIDTH 8 0
BBX 8 9 0 -2
BITMAP
36
3B
33
63
66
66
7C
C0
C0
ENDCHAR
STARTCHAR q
ENCODING 113
SWIDTH 681 0
DWIDTH 8 0
BBX 7 9 1 -2
BITMAP
3E
66
66
C6
CC
DC
6C
18
18
ENDCHAR
STARTCHAR r
ENCODING 114
SWIDTH 542 0
DWIDTH 7 0
BBX 6 7 1 0
BITMAP
6C
7C
60
E0
C0
C0
C0
ENDCHAR
STARTCHAR s
ENCODING 115
SWIDTH 527 0
DWIDTH 7 0
BBX 7 7 0 0
BITMAP
3C
66
70
38
1C
CC
78
ENDCHAR
STARTCHAR t
ENCODING 116
SWIDTH 437 0
DWIDTH 6 0
BBX 5 9 1 0
BITMAP
30
30
F8
60
60
C0
C0
C0
F0
ENDCHAR
STARTCHAR u
ENCODING 117
SWIDTH 675 0
DWIDTH 8 0
BBX 7 7 1 0
BITMAP
66
66
66
CC
CC
DC
6C
ENDCHAR
STARTCHAR v
ENCODING 118
SWIDTH 630 0
DWIDTH 8 0
BBX 6 7 2 0
BITMAP
CC
CC
C8
D8
D0
E0
C0
ENDCHAR
STARTCHAR w
ENCODING 119
SWIDTH 878 0
DWIDTH 11 0
BBX 9 7 2 0
BITMAP
C180
C980
C980
D900
DB00
EE00
CC00
ENDCHAR
STARTCHAR x
ENCODING 120
SWIDTH 563 0
DWIDTH 8 0
BBX 9 7 0 0
BITMAP
3180
3900
1A00
1C00
2C00
4E00
C600
ENDCHAR
STARTCHAR y
ENCODING 121
SWIDTH 633 0
DWIDTH 8 0
BBX 8 9 0 -2
BITMAP
33
33
32
36
34
38
30
60
C0
ENDCHAR
STARTCHAR z
ENCODING 122
SWIDTH 630 0
DWIDTH 8 0
BBX 7 7 1 0
BITMAP
7E
0E
1C
38
70
E0
FC
ENDCHAR
STARTCHAR braceleft
ENCODING 123
SWIDTH 386 0
DWIDTH 5 0
BBX 5 11 0 -1
BITMAP
18
30
60
60
30
E0
30
60
C0
C0
60
ENDCHAR
STARTCHAR bar
ENCODING 124
SWIDTH 259 0
DWIDTH 5 0
BBX 4 11 1 -1
BITMAP
30
30
30
60
60
60
60
60
C0
C0
C0
ENDCHAR
STARTCHAR braceright
ENCODING 125
SWIDTH 386 0
DWIDTH 5 0
BBX 5 11 0 -1
BITMAP
30
18
18
30
60
38
60
30
30
60
C0
ENDCHAR
STARTCHAR asciitilde
ENCODING 126
SWIDTH 687 0
DWIDTH 9 0
BBX 7 3 1 3
BITMAP
72
FE
9C
ENDCHAR
STARTCHAR afii10051
ENCODING 128
SWIDTH 916 0
DWIDTH 11 0
BBX 9 9 1 0
BITMAP
FF00
1800
1800
1F00
3980
3180
3180
3300
3600
ENDCHAR
STARTCHAR afii10052
ENCODING 129
SWIDTH 583 0
DWIDTH 7 0
BBX 7 11 1 0
BITMAP
0C
18
00
7E
60
60
60
C0
C0
C0
C0
ENDCHAR
STARTCHAR quotesinglbase
ENCODING 130
SWIDTH 265 0
DWIDTH 3 0
BBX 3 4 0 -2
BITMAP
60
60
40
80
ENDCHAR
STARTCHAR afii10100
ENCODING 131
SWIDTH 666 0
DWIDTH 8 0
BBX 7 10 1 0
BITMAP
0C
18
00
3C
66
0C
30
C0
CC
78
ENDCHAR
STARTCHAR quotedblbase
ENCODING 132
SWIDTH 530 0
DWIDTH 6 0
BBX 6 4 0 -2
BITMAP
6C
6C
48
90
ENDCHAR
STARTCHAR ellipsis
ENCODING 133
SWIDTH 1000 0
DWIDTH 8 0
BBX 6 2 1 0
BITMAP
CC
CC
ENDCHAR
STARTCHAR dagger
ENCODING 134
SWIDTH 687 0
DWIDTH 8 0
BBX 7 10 1 -1
BITMAP
18
18
18
FE
30
30
30
60
60
60
ENDCHAR
STARTCHAR daggerdbl
ENCODING 135
SWIDTH 687 0
DWIDTH 8 0
BBX 8 10 1 -1
BITMAP
0C
0C
0C
7F
18
18
FE
30
30
30
ENDCHAR
STARTCHAR Euro
ENCODING 136
SWIDTH 750 0
DWIDTH 9 0
BBX 9 9 0 0
BITMAP
0700
1D80
3000
7E00
6000
FC00
6000
7100
3E00
ENDCHAR
STARTCHAR perthousand
ENCODING 137
SWIDTH 1332 0
DWIDTH 16 0
BBX 15 9 1 0
BITMAP
70C0
D980
DB00
7600
0C00
1B9C
36F6
66F6
C39C
ENDCHAR
STARTCHAR afii10058
ENCODING 138
SWIDTH 1083 0
DWIDTH 13 0
BBX 13 9 0 0
BITMAP
1F80
1980
1980
19F0
3198
3318
6318
6330
C3E0
ENDCHAR
STARTCHAR guilsinglleft
ENCODING 139
SWIDTH 386 0
DWIDTH 5 0
BBX 4 5 0 1
BITMAP
10
70
C0
60
20
ENDCHAR
STARTCHAR afii10059
ENCODING 140
SWIDTH 1083 0
DWIDTH 13 0
BBX 12 9 1 0
BITMAP
6300
6300
6300
7FE0
C730
C630
C630
C660
C7C0
ENDCHAR
STARTCHAR afii10061
ENCODING 141
SWIDTH 750 0
DWIDTH 9 0
BBX 8 11 1 0
BITMAP
06
0C
00
63
66
6C
F0
D8
CC
CC
C6
ENDCHAR
STARTCHAR afii10060
ENCODING 142
SWIDTH 916 0
DWIDTH 11 0
BBX 9 9 1 0
BITMAP
FF00
1800
1800
1F00
3980
3180
3180
3180
3180
ENDCHAR
STARTCHAR afii10145
ENCODING 143
SWIDTH 833 0
DWIDTH 10 0
BBX 8 10 1 -1
BITMAP
63
63
63
63
63
C6
C6
C6
FE
30
ENDCHAR
STARTCHAR afii10099
ENCODING 144
SWIDTH 666 0
DWIDTH 8 0
BBX 7 12 1 -2
BITMAP
30
7C
30
6E
76
66
66
CC
CC
D8
18
30
ENDCHAR
STARTCHAR quoteleft
ENCODING 145
SWIDTH 265 0
DWIDTH 3 0
BBX 3 4 1 6
BITMAP
20
40
C0
C0
ENDCHAR
STARTCHAR quoteright
ENCODING 146
SWIDTH 265 0
DWIDTH 3 0
BBX 3 4 1 5
BITMAP
60
60
40
80
ENDCHAR
STARTCHAR quotedblleft
ENCODING 147
SWIDTH 530 0
DWIDTH 7 0
BBX 6 4 1 6
BITMAP
24
48
D8
D8
ENDCHAR
STARTCHAR quotedblright
ENCODING 148
SWIDTH 530 0
DWIDTH 7 0
BBX 6 4 1 6
BITMAP
6C
6C
48
90
ENDCHAR
STARTCHAR bullet
ENCODING 149
SWIDTH 687 0
DWIDTH 8 0
BBX 3 3 3 3
BITMAP
E0
E0
E0
ENDCHAR
STARTCHAR endash
ENCODING 150
SWIDTH 500 0
DWIDTH 6 0
BBX 5 1 1 4
BITMAP
F8
ENDCHAR
STARTCHAR emdash
ENCODING 151
SWIDTH 1000 0
DWIDTH 13 0
BBX 12 1 1 4
BITMAP
FFF0
ENDCHAR
STARTCHAR trademark
ENCODING 153
SWIDTH 901 0
DWIDTH 11 0
BBX 10 3 1 6
BITMAP
FDC0
6AC0
6AC0
ENDCHAR
STARTCHAR afii10106
ENCODING 154
SWIDTH 1000 0
DWIDTH 12 0
BBX 12 7 0 0
BITMAP
1F00
1B00
1BE0
3730
3630
6660
C3C0
ENDCHAR
STARTCHAR guilsinglright
ENCODING 155
SWIDTH 386 0
DWIDTH 5 0
BBX 4 5 1 1
BITMAP
40
60
30
E0
80
ENDCHAR
STARTCHAR afii10107
ENCODING 156
SWIDTH 1000 0
DWIDTH 12 0
BBX 11 7 1 0
BITMAP
6600
6600
67C0
7E60
CC60
CCC0
C780
ENDCHAR
STARTCHAR afii10109
ENCODING 157
SWIDTH 666 0
DWIDTH 8 0
BBX 7 10 1 0
BITMAP
0C
18
00
66
6C
78
70
D8
CC
C6
ENDCHAR
STARTCHAR afii10108
ENCODING 158
SWIDTH 666 0
DWIDTH 8 0
BBX 7 10 1 0
BITMAP
30
7C
30
6E
76
66
66
CC
CC
CC
ENDCHAR
STARTCHAR afii10193
ENCODING 159
SWIDTH 666 0
DWIDTH 8 0
BBX 7 8 1 -1
BITMAP
66
66
66
CC
CC
DC
6C
60
ENDCHAR
STARTCHAR space
ENCODING 160
SWIDTH 343 0
DWIDTH 4 0
BBX 0 0 0 0
BITMAP
ENDCHAR
STARTCHAR afii10062
ENCODING 161
SWIDTH 750 0
DWIDTH 9 0
BBX 8 11 1 0
BITMAP
1C
00
63
63
63
32
36
3C
18
30
E0
ENDCHAR
STARTCHAR afii10110
ENCODING 162
SWIDTH 666 0
DWIDTH 8 0
BBX 8 11 0 -2
BITMAP
0C
00
33
33
32
36
34
38
30
60
C0
ENDCHAR
STARTCHAR afii10057
ENCODING 163
SWIDTH 502 0
DWIDTH 6 0
BBX 6 11 -1 -2
BITMAP
0C
0C
0C
0C
1C
18
18
18
18
38
F0
ENDCHAR
STARTCHAR currency
ENCODING 164
SWIDTH 687 0
DWIDTH 8 0
BBX 10 9 0 0
BITMAP
30C0
1080
1F00
3300
3300
3300
3E00
4200
C300
ENDCHAR
STARTCHAR afii10050
ENCODING 165
SWIDTH 583 0
DWIDTH 7 0
BBX 7 10 1 0
BITMAP
06
7E
60
60
60
C0
C0
C0
C0
C0
ENDCHAR
STARTCHAR brokenbar
ENCODING 166
SWIDTH 259 0
DWIDTH 4 0
BBX 4 11 1 -1
BITMAP
30
30
30
30
00
00
00
C0
C0
C0
C0
ENDCHAR
STARTCHAR section
ENCODING 167
SWIDTH 687 0
DWIDTH 8 0
BBX 7 10 1 -1
BITMAP
1C
36
30
78
4C
64
3C
18
D8
70
ENDCHAR
STARTCHAR afii10023
ENCODING 168
SWIDTH 642 0
DWIDTH 8 0
BBX 7 11 1 0
BITMAP
24
24
00
7E
60
60
F8
C0
C0
C0
FC
ENDCHAR
STARTCHAR copyright
ENCODING 169
SWIDTH 834 0
DWIDTH 10 0
BBX 9 9 1 0
BITMAP
1C00
6300
4D00
9480
9080
9080
4D00
6300
1C00
ENDCHAR
STARTCHAR afii10053
ENCODING 170
SWIDTH 750 0
DWIDTH 9 0
BBX 8 9 1 0
BITMAP
0E
3B
60
60
F8
C0
C0
E2
7C
ENDCHAR
STARTCHAR guillemotleft
ENCODING 171
SWIDTH 633 0
DWIDTH 8 0
BBX 8 5 0 1
BITMAP
11
77
CC
66
22
ENDCHAR
STARTCHAR logicalnot
ENCODING 172
SWIDTH 687 0
DWIDTH 9 0
BBX 7 3 1 2
BITMAP
FE
02
02
ENDCHAR
STARTCHAR hyphen
ENCODING 173
SWIDTH 289 0
DWIDTH 4 0
BBX 3 1 1 4
BITMAP
E0
ENDCHAR
STARTCHAR registered
ENCODING 174
SWIDTH 691 0
DWIDTH 9 0
BBX 7 7 1 2
BITMAP
38
44
BA
B2
AA
44
38
ENDCHAR
STARTCHAR afii10056
ENCODING 175
SWIDTH 361 0
DWIDTH 5 0
BBX 4 11 1 0
BITMAP
90
90
00
60
60
60
E0
C0
C0
C0
C0
ENDCHAR
STARTCHAR degree
ENCODING 176
SWIDTH 241 0
DWIDTH 3 0
BBX 4 3 0 6
BITMAP
60
B0
60
ENDCHAR
STARTCHAR plusminus
ENCODING 177
SWIDTH 687 0
DWIDTH 9 0
BBX 7 7 1 1
BITMAP
08
08
7E
10
10
00
FC
ENDCHAR
STARTCHAR afii10055
ENCODING 178
SWIDTH 361 0
DWIDTH 5 0
BBX 3 9 1 0
BITMAP
60
60
60
60
E0
C0
C0
C0
C0
ENDCHAR
STARTCHAR afii10103
ENCODING 179
SWIDTH 343 0
DWIDTH 4 0
BBX 4 10 1 0
BITMAP
30
30
00
60
60
60
60
C0
C0
C0
ENDCHAR
STARTCHAR afii10098
ENCODING 180
SWIDTH 583 0
DWIDTH 7 0
BBX 6 8 1 0
BITMAP
0C
7C
60
60
C0
C0
C0
C0
ENDCHAR
STARTCHAR mu
ENCODING 181
SWIDTH 681 0
DWIDTH 8 0
BBX 8 9 0 -2
BITMAP
33
33
33
66
66
6E
F6
C0
C0
ENDCHAR
STARTCHAR paragraph
ENCODING 182
SWIDTH 687 0
DWIDTH 8 0
BBX 7 10 1 -1
BITMAP
7E
F2
F2
76
24
24
6C
48
48
48
ENDCHAR
STARTCHAR periodcentered
ENCODING 183
SWIDTH 343 0
DWIDTH 8 0
BBX 2 2 4 3
BITMAP
C0
C0
ENDCHAR
STARTCHAR afii10071
ENCODING 184
SWIDTH 612 0
DWIDTH 8 0
BBX 7 10 1 0
BITMAP
24
24
00
3C
66
CE
F8
C0
CC
78
ENDCHAR
STARTCHAR afii61352
ENCODING 185
SWIDTH 1166 0
DWIDTH 14 0
BBX 12 9 1 0
BITMAP
6100
7100
7130
7B50
5A50
CE60
8E00
86E0
8600
ENDCHAR
STARTCHAR afii10101
ENCODING 186
SWIDTH 583 0
DWIDTH 7 0
BBX 6 7 1 0
BITMAP
38
6C
C0
F0
C0
C0
78
ENDCHAR
STARTCHAR guillemotright
ENCODING 187
SWIDTH 633 0
DWIDTH 8 0
BBX 8 5 0 1
BITMAP
44
66
33
EE
88
ENDCHAR
STARTCHAR afii10105
ENCODING 188
SWIDTH 407 0
DWIDTH 5 0
BBX 6 12 -1 -2
BITMAP
0C
0C
00
18
18
18
18
18
30
30
30
E0
ENDCHAR
STARTCHAR afii10054
ENCODING 189
SWIDTH 639 0
DWIDTH 8 0
BBX 7 9 1 0
BITMAP
3C
66
60
70
38
1C
0C
CC
78
ENDCHAR
STARTCHAR afii10102
ENCODING 190
SWIDTH 527 0
DWIDTH 7 0
BBX 7 7 0 0
BITMAP
3C
66
70
38
1C
CC
78
ENDCHAR
STARTCHAR afii10104
ENCODING 191
SWIDTH 343 0
DWIDTH 4 0
BBX 4 10 1 0
BITMAP
90
90
00
60
60
60
60
C0
C0
C0
ENDCHAR
STARTCHAR afii10017
ENCODING 192
SWIDTH 750 0
DWIDTH 9 0
BBX 8 9 0 0
BITMAP
03
07
0F
1B
33
3F
63
C3
C3
ENDCHAR
STARTCHAR afii10018
ENCODING 193
SWIDTH 666 0
DWIDTH 8 0
BBX 7 9 1 0
BITMAP
7E
60
60
7C
C6
C6
C6
CC
F8
ENDCHAR
STARTCHAR afii10019
ENCODING 194
SWIDTH 666 0
DWIDTH 8 0
BBX 7 9 1 0
BITMAP
7C
66
66
6C
FC
C6
C6
CC
F8
ENDCHAR
STARTCHAR afii10020
ENCODING 195
SWIDTH 583 0
DWIDTH 7 0
BBX 7 9 1 0
BITMAP
7E
60
60
60
C0
C0
C0
C0
C0
ENDCHAR
STARTCHAR afii10021
ENCODING 196
SWIDTH 833 0
DWIDTH 10 0
BBX 9 10 0 -1
BITMAP
1F80
1980
1980
1980
3180
3300
6300
6300
FF80
C300
ENDCHAR
STARTCHAR afii10022
ENCODING 197
SWIDTH 666 0
DWIDTH 8 0
BBX 7 9 1 0
BITMAP
7E
60
60
60
F8
C0
C0
C0
FC
ENDCHAR
STARTCHAR afii10024
ENCODING 198
SWIDTH 1083 0
DWIDTH 13 0
BBX 13 9 0 0
BITMAP
6318
3330
1B60
0FC0
1F80
36C0
6660
6660
C630
ENDCHAR
STARTCHAR afii10025
ENCODING 199
SWIDTH 666 0
DWIDTH 8 0
BBX 7 9 1 0
BITMAP
3C
66
06
0C
3C
06
06
CC
78
ENDCHAR
STARTCHAR afii10026
ENCODING 200
SWIDTH 833 0
DWIDTH 10 0
BBX 8 9 1 0
BITMAP
43
47
4F
4D
5A
B2
F2
E2
C2
ENDCHAR
STARTCHAR afii10027
ENCODING 201
SWIDTH 833 0
DWIDTH 10 0
BBX 8 11 1 0
BITMAP
1C
00
43
47
4F
4D
5A
B2
F2
E2
C2
ENDCHAR
STARTCHAR afii10028
ENCODING 202
SWIDTH 750 0
DWIDTH 9 0
BBX 8 9 1 0
BITMAP
63
66
6C
78
F0
D8
CC
CC
C6
ENDCHAR
STARTCHAR afii10029
ENCODING 203
SWIDTH 833 0
DWIDTH 10 0
BBX 9 9 0 0
BITMAP
1F80
1980
1980
1980
3180
3300
6300
6300
C300
ENDCHAR
STARTCHAR afii10030
ENCODING 204
SWIDTH 1000 0
DWIDTH 12 0
BBX 10 9 1 0
BITMAP
79C0
79C0
6AC0
6EC0
6CC0
CD80
C980
C180
C180
ENDCHAR
STARTCHAR afii10031
ENCODING 205
SWIDTH 833 0
DWIDTH 10 0
BBX 8 9 1 0
BITMAP
63
63
63
63
FF
C6
C6
C6
C6
ENDCHAR
STARTCHAR afii10032
ENCODING 206
SWIDTH 916 0
DWIDTH 11 0
BBX 9 9 1 0
BITMAP
0F00
3380
6180
6180
C180
C300
C300
E600
7800
ENDCHAR
STARTCHAR afii10033
ENCODING 207
SWIDTH 833 0
DWIDTH 10 0
BBX 8 9 1 0
BITMAP
7F
63
63
63
63
C6
C6
C6
C6
ENDCHAR
STARTCHAR afii10034
ENCODING 208
SWIDTH 666 0
DWIDTH 8 0
BBX 7 9 1 0
BITMAP
7C
66
66
66
CC
F8
C0
C0
C0
ENDCHAR
STARTCHAR afii10035
ENCODING 209
SWIDTH 750 0
DWIDTH 9 0
BBX 8 9 1 0
BITMAP
0E
3B
60
60
C0
C0
C0
E2
7C
ENDCHAR
STARTCHAR afii10036
ENCODING 210
SWIDTH 750 0
DWIDTH 9 0
BBX 8 9 1 0
BITMAP
FF
18
18
18
38
30
30
30
30
ENDCHAR
STARTCHAR afii10037
ENCODING 211
SWIDTH 750 0
DWIDTH 9 0
BBX 8 9 1 0
BITMAP
63
63
63
32
36
3C
18
30
E0
ENDCHAR
STARTCHAR afii10038
ENCODING 212
SWIDTH 1083 0
DWIDTH 13 0
BBX 11 9 1 0
BITMAP
0600
3FC0
6660
C660
C660
CC60
CCC0
7F80
0C00
ENDCHAR
STARTCHAR afii10039
ENCODING 213
SWIDTH 750 0
DWIDTH 9 0
BBX 9 9 0 0
BITMAP
7180
3180
3B00
1A00
1C00
2C00
6E00
C600
C700
ENDCHAR
STARTCHAR afii10040
ENCODING 214
SWIDTH 833 0
DWIDTH 10 0
BBX 8 10 1 -1
BITMAP
63
63
63
63
63
C6
C6
C6
FF
06
ENDCHAR
STARTCHAR afii10041
ENCODING 215
SWIDTH 750 0
DWIDTH 9 0
BBX 7 9 1 0
BITMAP
C6
C6
C6
C6
CE
7C
0C
0C
0C
ENDCHAR
STARTCHAR afii10042
ENCODING 216
SWIDTH 1083 0
DWIDTH 13 0
BBX 11 9 1 0
BITMAP
6660
6660
6660
6660
6660
CCC0
CCC0
CCC0
FFC0
ENDCHAR
STARTCHAR afii10043
ENCODING 217
SWIDTH 1083 0
DWIDTH 13 0
BBX 11 10 1 -1
BITMAP
6660
6660
6660
6660
6660
CCC0
CCC0
CCC0
FFE0
00C0
ENDCHAR
STARTCHAR afii10044
ENCODING 218
SWIDTH 750 0
DWIDTH 9 0
BBX 8 9 1 0
BITMAP
F0
30
30
3E
63
63
63
66
7C
ENDCHAR
STARTCHAR afii10045
ENCODING 219
SWIDTH 1083 0
DWIDTH 13 0
BBX 11 9 1 0
BITMAP
6060
6060
6060
7C60
C6C0
C6C0
C6C0
CCC0
F8C0
ENDCHAR
STARTCHAR afii10046
ENCODING 220
SWIDTH 666 0
DWIDTH 8 0
BBX 7 9 1 0
BITMAP
60
60
60
7C
C6
C6
C6
CC
F8
ENDCHAR
STARTCHAR afii10047
ENCODING 221
SWIDTH 833 0
DWIDTH 10 0
BBX 9 9 0 0
BITMAP
0F00
1380
0180
0180
0F80
0300
0300
8600
7800
ENDCHAR
STARTCHAR afii10048
ENCODING 222
SWIDTH 1250 0
DWIDTH 15 0
BBX 13 9 1 0
BITMAP
60F0
6338
6618
6618
7C18
CC30
CC30
CE60
C780
ENDCHAR
STARTCHAR afii10049
ENCODING 223
SWIDTH 750 0
DWIDTH 9 0
BBX 8 9 0 0
BITMAP
1F
33
33
33
1E
36
36
66
C6
ENDCHAR
STARTCHAR afii10065
ENCODING 224
SWIDTH 666 0
DWIDTH 8 0
BBX 7 7 1 0
BITMAP
3E
66
66
C6
CC
DC
EC
ENDCHAR
STARTCHAR afii10066
ENCODING 225
SWIDTH 666 0
DWIDTH 8 0
BBX 8 10 1 0
BITMAP
07
18
30
6C
76
C6
C6
C6
CC
78
ENDCHAR
STARTCHAR afii10067
ENCODING 226
SWIDTH 666 0
DWIDTH 8 0
BBX 8 10 1 0
BITMAP
0E
1B
33
66
6C
C6
C6
C6
CC
78
ENDCHAR
STARTCHAR afii10068
ENCODING 227
SWIDTH 666 0
DWIDTH 8 0
BBX 7 7 1 0
BITMAP
3C
66
0C
30
C0
CC
78
ENDCHAR
STARTCHAR afii10069
ENCODING 228
SWIDTH 666 0
DWIDTH 8 0
BBX 7 10 1 0
BITMAP
38
0C
06
36
6E
C6
C6
C6
CC
78
ENDCHAR
STARTCHAR afii10070
ENCODING 229
SWIDTH 666 0
DWIDTH 8 0
BBX 7 7 1 0
BITMAP
3C
66
CE
F8
C0
CC
78
ENDCHAR
STARTCHAR afii10072
ENCODING 230
SWIDTH 916 0
DWIDTH 11 0
BBX 11 7 0 0
BITMAP
6660
36C0
1F80
1F00
3D80
6CC0
CC60
ENDCHAR
STARTCHAR afii10073
ENCODING 231
SWIDTH 583 0
DWIDTH 7 0
BBX 7 7 0 0
BITMAP
3C
66
06
18
0C
8C
78
ENDCHAR
STARTCHAR afii10074
ENCODING 232
SWIDTH 666 0
DWIDTH 8 0
BBX 7 7 1 0
BITMAP
66
66
66
CC
CC
DC
6C
ENDCHAR
STARTCHAR afii10075
ENCODING 233
SWIDTH 666 0
DWIDTH 8 0
BBX 7 9 1 0
BITMAP
18
00
66
66
66
CC
CC
DC
6C
ENDCHAR
STARTCHAR afii10076
ENCODING 234
SWIDTH 666 0
DWIDTH 8 0
BBX 7 7 1 0
BITMAP
66
6C
78
70
D8
CC
C6
ENDCHAR
STARTCHAR afii10077
ENCODING 235
SWIDTH 666 0
DWIDTH 8 0
BBX 8 7 0 0
BITMAP
1F
1B
1B
33
36
66
C6
ENDCHAR
STARTCHAR afii10078
ENCODING 236
SWIDTH 916 0
DWIDTH 11 0
BBX 10 7 1 0
BITMAP
71C0
71C0
52C0
5AC0
9D80
9980
8180
ENDCHAR
STARTCHAR afii10079
ENCODING 237
SWIDTH 666 0
DWIDTH 8 0
BBX 7 7 1 0
BITMAP
66
66
66
7E
CC
CC
CC
ENDCHAR
STARTCHAR afii10080
ENCODING 238
SWIDTH 666 0
DWIDTH 8 0
BBX 7 7 1 0
BITMAP
3C
66
C6
C6
C6
CC
78
ENDCHAR
STARTCHAR afii10081
ENCODING 239
SWIDTH 666 0
DWIDTH 8 0
BBX 7 7 1 0
BITMAP
6E
76
66
66
CC
CC
CC
ENDCHAR
STARTCHAR afii10082
ENCODING 240
SWIDTH 666 0
DWIDTH 8 0
BBX 8 9 0 -2
BITMAP
36
3B
33
63
66
66
7C
C0
C0
ENDCHAR
STARTCHAR afii10083
ENCODING 241
SWIDTH 583 0
DWIDTH 7 0
BBX 6 7 1 0
BITMAP
38
6C
C0
C0
C0
C0
78
ENDCHAR
STARTCHAR afii10084
ENCODING 242
SWIDTH 1000 0
DWIDTH 12 0
BBX 11 7 1 0
BITMAP
6EE0
7760
6660
6660
CCC0
CCC0
CCC0
ENDCHAR
STARTCHAR afii10085
ENCODING 243
SWIDTH 666 0
DWIDTH 8 0
BBX 8 9 0 -2
BITMAP
33
33
32
36
34
38
30
60
C0
ENDCHAR
STARTCHAR afii10086
ENCODING 244
SWIDTH 1000 0
DWIDTH 12 0
BBX 11 12 1 -2
BITMAP
0300
0300
0300
3FC0
6660
6660
CC60
CCC0
CCC0
7F80
1800
1800
ENDCHAR
STARTCHAR afii10087
ENCODING 245
SWIDTH 666 0
DWIDTH 8 0
BBX 9 7 0 0
BITMAP
3180
3900
1A00
1C00
2C00
4E00
C600
ENDCHAR
STARTCHAR afii10088
ENCODING 246
SWIDTH 666 0
DWIDTH 8 0
BBX 7 8 1 -1
BITMAP
66
66
66
CC
CC
DC
6E
06
ENDCHAR
STARTCHAR afii10089
ENCODING 247
SWIDTH 666 0
DWIDTH 8 0
BBX 6 7 2 0
BITMAP
CC
CC
CC
D8
78
18
18
ENDCHAR
STARTCHAR afii10090
ENCODING 248
SWIDTH 1000 0
DWIDTH 12 0
BBX 11 7 1 0
BITMAP
6660
6660
6660
CCC0
CCC0
DDC0
EEC0
ENDCHAR
STARTCHAR afii10091
ENCODING 249
SWIDTH 1000 0
DWIDTH 12 0
BBX 11 8 1 -1
BITMAP
6660
6660
6660
CCC0
CCC0
DDC0
EEE0
0060
ENDCHAR
STARTCHAR afii10092
ENCODING 250
SWIDTH 750 0
DWIDTH 9 0
BBX 8 7 1 0
BITMAP
F0
30
3E
73
63
66
3C
ENDCHAR
STARTCHAR afii10093
ENCODING 251
SWIDTH 1000 0
DWIDTH 12 0
BBX 11 7 1 0
BITMAP
6060
6060
7C60
E660
C6C0
CCC0
78C0
ENDCHAR
STARTCHAR afii10094
ENCODING 252
SWIDTH 666 0
DWIDTH 8 0
BBX 7 7 1 0
BITMAP
60
60
7C
E6
C6
CC
78
ENDCHAR
STARTCHAR afii10095
ENCODING 253
SWIDTH 583 0
DWIDTH 7 0
BBX 7 7 0 0
BITMAP
3C
66
06
1E
06
8C
78
ENDCHAR
STARTCHAR afii10096
ENCODING 254
SWIDTH 1083 0
DWIDTH 13 0
BBX 11 7 1 0
BITMAP
63C0
6660
6C60
7C60
CC60
CCC0
C780
ENDCHAR
STARTCHAR afii10097
ENCODING 255
SWIDTH 666 0
DWIDTH 8 0
BBX 8 7 0 0
BITMAP
1F
33
33
1E
36
66
C6
ENDCHAR
STARTCHAR fl
ENCODING -1
SWIDTH 695 0
DWIDTH 9 0
BBX 9 12 1 -2
BITMAP
0F80
1980
1980
7F00
3300
3300
6300
6600
6600
C600
C000
C000
ENDCHAR
STARTCHAR Zcaron
ENCODING -1
SWIDTH 687 0
DWIDTH 9 0
BBX 9 11 0 0
BITMAP
0B00
0600
0000
3F80
0380
0700
1E00
3C00
7000
E000
FF00
ENDCHAR
STARTCHAR oe
ENCODING -1
SWIDTH 1004 0
DWIDTH 12 0
BBX 11 7 1 0
BITMAP
3BC0
6E60
CCE0
CF80
CC00
DCC0
7780
ENDCHAR
STARTCHAR Ydieresis
ENCODING -1
SWIDTH 681 0
DWIDTH 9 0
BBX 7 11 2 0
BITMAP
24
24
00
C6
C6
CC
D8
70
60
60
60
ENDCHAR
STARTCHAR dotlessi
ENCODING -1
SWIDTH 343 0
DWIDTH 4 0
BBX 3 7 1 0
BITMAP
60
60
60
60
C0
C0
C0
ENDCHAR
STARTCHAR lslash
ENCODING -1
SWIDTH 343 0
DWIDTH 5 0
BBX 6 10 0 0
BITMAP
18
18
18
30
3C
F0
30
60
60
60
ENDCHAR
STARTCHAR Lslash
ENCODING -1
SWIDTH 623 0
DWIDTH 8 0
BBX 8 9 0 0
BITMAP
18
18
18
1E
38
F0
30
30
3F
ENDCHAR
STARTCHAR fi
ENCODING -1
SWIDTH 695 0
DWIDTH 9 0
BBX 8 12 1 -2
BITMAP
0F
18
18
7F
33
33
63
66
66
C6
C0
C0
ENDCHAR
STARTCHAR OE
ENCODING -1
SWIDTH 1103 0
DWIDTH 14 0
BBX 13 9 1 0
BITMAP
0FF8
3980
6180
6180
C3F0
C300
C300
E300
7FF0
ENDCHAR
STARTCHAR caron
ENCODING -1
SWIDTH 663 0
DWIDTH 8 0
BBX 4 2 3 8
BITMAP
B0
60
ENDCHAR
STARTCHAR ogonek
ENCODING -1
SWIDTH 663 0
DWIDTH 8 0
BBX 4 2 2 -2
BITMAP
C0
70
ENDCHAR
STARTCHAR hungarumlaut
ENCODING -1
SWIDTH 663 0
DWIDTH 8 0
BBX 5 2 3 8
BITMAP
D8
90
ENDCHAR
STARTCHAR dotaccent
ENCODING -1
SWIDTH 663 0
DWIDTH 8 0
BBX 2 2 4 8
BITMAP
C0
C0
ENDCHAR
STARTCHAR breve
ENCODING -1
SWIDTH 663 0
DWIDTH 8 0
BBX 5 2 3 8
BITMAP
88
70
ENDCHAR
STARTCHAR tilde
ENCODING -1
SWIDTH 663 0
DWIDTH 8 0
BBX 5 2 2 8
BITMAP
68
B0
ENDCHAR
STARTCHAR circumflex
ENCODING -1
SWIDTH 663 0
DWIDTH 8 0
BBX 4 2 3 8
BITMAP
60
B0
ENDCHAR
STARTCHAR scaron
ENCODING -1
SWIDTH 527 0
DWIDTH 7 0
BBX 7 10 0 0
BITMAP
2C
18
00
3C
66
70
38
1C
CC
78
ENDCHAR
STARTCHAR ring
ENCODING -1
SWIDTH 663 0
DWIDTH 8 0
BBX 4 3 3 7
BITMAP
60
B0
60
ENDCHAR
STARTCHAR florin
ENCODING -1
SWIDTH 687 0
DWIDTH 8 0
BBX 7 10 1 -1
BITMAP
1C
36
30
30
FC
60
60
C0
C0
C0
ENDCHAR
STARTCHAR fraction
ENCODING -1
SWIDTH 130 0
DWIDTH 6 0
BBX 7 9 0 0
BITMAP
06
06
0C
18
18
30
60
C0
C0
ENDCHAR
STARTCHAR Scaron
ENCODING -1
SWIDTH 639 0
DWIDTH 8 0
BBX 7 11 1 0
BITMAP
2C
18
00
3C
66
60
78
3C
0C
CC
78
ENDCHAR
STARTCHAR zcaron
ENCODING -1
SWIDTH 630 0
DWIDTH 8 0
BBX 7 10 1 0
BITMAP
2C
18
00
7E
0E
1C
38
70
E0
FC
ENDCHAR
ENDFONT
